<?xml version="1.0" encoding="UTF-8"?>
<svg width="20px" height="19px" viewBox="0 0 20 19" version="1.1" xmlns="http://www.w3.org/2000/svg" xmlns:xlink="http://www.w3.org/1999/xlink">
    <!-- Generator: Sketch 59.1 (86144) - https://sketch.com -->
    <title>upload</title>
    <desc>Created with Sketch.</desc>
    <g id="Page-1" stroke="none" stroke-width="1" fill="none" fill-rule="evenodd">
        <g id="AHU-Config" transform="translate(-643.000000, -704.000000)" fill="#0C9A6F" fill-rule="nonzero">
            <g id="Group-3" transform="translate(557.000000, 673.000000)">
                <g id="Group-2-Copy-3" transform="translate(86.000000, 24.000000)">
                    <g id="upload" transform="translate(0.000000, 7.000000)">
                        <path d="M19.4269949,9.08857396 C19.1086587,9.08857396 18.8539898,9.35429584 18.8539898,9.68644818 L18.8539898,15.1248893 C18.8539898,16.6040744 17.6994907,17.8042516 16.2860781,17.8042516 L3.7139219,17.8042516 C2.29626486,17.8042516 1.14601019,16.5996457 1.14601019,15.1248893 L1.14601019,9.59787422 C1.14601019,9.26572188 0.891341256,9 0.573005093,9 C0.25466893,9 0,9.26572188 0,9.59787422 L0,15.1248893 C0,17.2639504 1.66808149,19 3.7139219,19 L16.2860781,19 C18.336163,19 20,17.2595217 20,15.1248893 L20,9.68644818 C20,9.35872453 19.7453311,9.08857396 19.4269949,9.08857396 Z" id="Path"></path>
                        <path d="M6.92571141,4.89805097 L9.45605641,2.07346327 L9.45605641,14.3928036 C9.45605641,14.7301349 9.69780912,15 10,15 C10.3021909,15 10.5439436,14.7301349 10.5439436,14.3928036 L10.5439436,2.07346327 L13.0742886,4.89805097 C13.1790481,5.0149925 13.3200705,5.07796102 13.4570637,5.07796102 C13.5980861,5.07796102 13.7350793,5.01949025 13.8398388,4.89805097 C14.0533871,4.65967016 14.0533871,4.27736132 13.8398388,4.03898051 L10.3827751,0.179910045 C10.2820448,0.0674662669 10.1410224,0 10,0 C9.85494838,0 9.71795518,0.0629685157 9.61722488,0.179910045 L6.16016117,4.03898051 C5.94661294,4.27736132 5.94661294,4.65967016 6.16016117,4.89805097 C6.36968018,5.13193403 6.71619239,5.13193403 6.92571141,4.89805097 Z" id="Path"></path>
                    </g>
                </g>
            </g>
        </g>
    </g>
</svg>