<?xml version="1.0" encoding="UTF-8"?>
<svg width="24px" height="24px" viewBox="0 0 24 24" version="1.1" xmlns="http://www.w3.org/2000/svg" xmlns:xlink="http://www.w3.org/1999/xlink">
    <!-- Generator: Sketch 59.1 (86144) - https://sketch.com -->
    <title>Generate Copy</title>
    <desc>Created with Sketch.</desc>
    <g id="Page-1" stroke="none" stroke-width="1" fill="none" fill-rule="evenodd">
        <g id="AHU-Config" transform="translate(-601.000000, -854.000000)" fill="#FFFFFF">
            <g id="Group-4" transform="translate(558.000000, 826.000000)">
                <g id="Generate" transform="translate(43.000000, 28.000000)">
                    <g id="settings-(1)">
                        <path d="M15.3845146,17.2506667 C15.1326784,17.0993216 14.8741988,16.9471813 14.6157193,16.7980351 C14.6764912,16.2801404 14.6766316,15.7562573 14.616,15.2393918 C14.875462,15.0896842 15.1338012,14.9376374 15.3844211,14.7869474 C15.8064094,14.5333801 15.9823158,13.9983626 15.7934971,13.5423626 C15.7934971,13.5423626 15.7934971,13.5423626 15.7934503,13.5423158 L15.2427602,12.2128187 C15.0538947,11.7569591 14.5514386,11.5028772 14.0734971,11.6219415 C13.7894737,11.6926316 13.4992749,11.7678129 13.2101053,11.8453801 C12.8872515,11.4368655 12.5167719,11.0664795 12.1077427,10.7434386 C12.1853099,10.4542222 12.260538,10.163883 12.3312749,9.87976608 C12.4503392,9.40205848 12.1963041,8.8994152 11.7404444,8.71054971 L10.4109474,8.15985965 C9.95508772,7.97094737 9.41992982,8.14671345 9.16626901,8.56879532 C9.01520468,8.82021053 8.86301754,9.07869006 8.71368421,9.33759064 C8.19592982,9.27681871 7.67214035,9.27667836 7.15504094,9.33726316 C7.00523977,9.07756725 6.8531462,8.81918129 6.70264327,8.56879532 C6.44888889,8.14680702 5.91387135,7.97099415 5.45796491,8.15985965 L4.12846784,8.71054971 C3.67270175,8.89936842 3.4185731,9.40205848 3.53763743,9.87976608 C3.60851462,10.1644444 3.68364912,10.4546901 3.76107602,10.7431579 C3.35260819,11.0659181 2.98217544,11.4364912 2.65918129,11.8455205 C2.36930994,11.7677193 2.07897076,11.6925848 1.7954152,11.6219415 C1.31756725,11.5027836 0.815017544,11.7570526 0.626152047,12.2128655 L0.0755555556,13.5423158 C-0.113216374,13.9982222 0.0626432749,14.5332865 0.484538012,14.7868538 C0.736,14.9379649 0.994479532,15.0901053 1.25333333,15.2394854 C1.19260819,15.757193 1.19246784,16.2809825 1.25305263,16.7981287 C0.993964912,16.9476023 0.735625731,17.0996959 0.484444444,17.2506199 C0.0625497076,17.5042339 -0.113309942,18.0392515 0.0755087719,18.4952047 L0.626245614,19.8247018 C0.815064327,20.2805146 1.31747368,20.5346901 1.79550877,20.4155789 C2.07920468,20.3449357 2.36945029,20.2698012 2.65880702,20.1921404 C2.98166082,20.6006082 3.35214035,20.9709474 3.76116959,21.2940351 C3.68350877,21.5835789 3.60832749,21.8739181 3.53763743,22.1577076 C3.4185731,22.6354152 3.67260819,23.1381053 4.12846784,23.326924 L5.4580117,23.8776608 C5.58152047,23.9287953 5.71078363,23.9532933 5.83869006,23.9532933 C6.18311111,23.9532933 6.5177076,23.7764211 6.70283041,23.4687719 C6.85277193,23.2192749 7.0048655,22.9608889 7.1554152,22.7000234 C7.67307602,22.7607018 8.19700585,22.7607953 8.71405848,22.7003041 C8.86278363,22.9581754 9.01487719,23.2165146 9.16645614,23.4688187 C9.42011696,23.890807 9.9551345,24.0665731 10.4111345,23.8777544 L11.7406316,23.3270643 C12.1963977,23.1382456 12.4505263,22.6355556 12.331462,22.157848 C12.2611462,21.8756023 12.1860117,21.5853567 12.1080234,21.2944561 C12.5163977,20.9716959 12.8868772,20.6011696 13.2099649,20.1921404 C13.4989942,20.2696608 13.7893333,20.3447953 14.0735906,20.4156257 C14.5512982,20.5347836 15.0539883,20.2807018 15.2428538,19.8247485 L15.7935439,18.4952047 C15.982269,18.0392982 15.8064094,17.5042339 15.3845146,17.2506667 Z M14.2744327,19.360655 C14.0013567,19.2922573 13.7229942,19.2199298 13.4462222,19.1453567 C13.0543626,19.0399532 12.6408421,19.177731 12.3927018,19.4965614 C12.1075088,19.8628772 11.7774503,20.1929825 11.4117427,20.4777544 C11.0932865,20.7258012 10.9556959,21.1391813 11.061193,21.530807 C11.1361871,21.8093567 11.2084678,22.0875322 11.2764444,22.3586901 L10.0543626,22.8648421 C9.90900585,22.6223158 9.76346199,22.3745029 9.62119298,22.1272982 C9.41876023,21.7757661 9.0291462,21.5809591 8.62863158,21.6305497 C8.16870175,21.6876725 7.70184795,21.6876257 7.24130994,21.6303158 C6.83967251,21.5804444 6.45038596,21.7752515 6.248,22.1268772 C6.104,22.3768889 5.95840936,22.6248421 5.81464327,22.8648421 L4.5925614,22.3585965 C4.66091228,22.0859883 4.73323977,21.8076725 4.80790643,21.5304795 C4.91340351,21.1386667 4.77553216,20.7250994 4.45670175,20.4769123 C4.09038596,20.1917661 3.76032749,19.8617544 3.47550877,19.4960936 C3.22755556,19.1775439 2.81417544,19.04 2.42240936,19.1454503 C2.14530994,19.2200702 1.86708772,19.2923977 1.5945731,19.3607018 L1.08832749,18.1386667 C1.32977778,17.9939181 1.57768421,17.8483743 1.82591813,17.7054503 C2.17749708,17.5030175 2.37249123,17.1134971 2.32271345,16.7129357 C2.26549708,16.2529591 2.26563743,15.786152 2.3228538,15.3255673 C2.37281871,14.9246316 2.17796491,14.5346901 1.82619883,14.3322105 C1.57805848,14.1893333 1.33010526,14.0437427 1.08832749,13.8987602 L1.59452632,12.6767251 C1.86680702,12.7449825 2.14507602,12.8173099 2.42269006,12.8920234 C2.81436257,12.9975673 3.22792982,12.8596491 3.47625731,12.5408187 C3.76140351,12.1745029 4.09146199,11.8443977 4.45707602,11.5596725 C4.77557895,11.3116725 4.91316959,10.8982456 4.80767251,10.5064795 C4.73328655,10.230269 4.66095906,9.95209357 4.59242105,9.67869006 L5.81450292,9.17253801 C5.95878363,9.41328655 6.10437427,9.6611462 6.24767251,9.91008187 C6.45015205,10.2616608 6.84009357,10.4569357 7.24023392,10.4068304 C7.69997661,10.349614 8.16673684,10.349614 8.62769591,10.4070643 C9.0288655,10.4570292 9.4185731,10.2619415 9.62095906,9.91036257 C9.76378947,9.66222222 9.9094269,9.41426901 10.054269,9.17253801 L11.2763509,9.67869006 C11.2079532,9.95157895 11.1356257,10.2298947 11.0610058,10.5069006 C10.9555088,10.8986667 11.0933801,11.3122339 11.4122105,11.5604211 C11.7784795,11.8455673 12.1085848,12.1755789 12.3934035,12.5412398 C12.6413567,12.8596959 13.0545965,12.9972865 13.4465497,12.8918363 C13.723462,12.8172632 14.0016374,12.7449357 14.2743392,12.6765848 L14.7804912,13.8986199 C14.5394152,14.0431345 14.2915556,14.1886784 14.0429474,14.3318363 C13.6913684,14.534269 13.4963275,14.9238363 13.546152,15.3243977 C13.6033684,15.7841404 13.6032749,16.2509942 13.5459181,16.7118596 C13.4960468,17.1128421 13.6909942,17.5026901 14.0426199,17.7051228 C14.290386,17.8477661 14.5383392,17.9933567 14.7804912,18.1384795 L14.2744327,19.360655 Z" id="Shape" fill-rule="nonzero"></path>
                        <path d="M11.3105029,14.6203977 C11.3105029,14.6203977 11.3105029,14.6203977 11.3104561,14.6203509 C10.539462,12.7588772 8.39789474,11.8717193 6.53614035,12.6427602 C4.67471345,13.413848 3.78750877,15.5556023 4.55859649,17.417076 C4.93207018,18.3188772 5.63447953,19.0211462 6.53618713,19.3947135 C6.98704094,19.5814269 7.46077193,19.674807 7.93450292,19.674807 C8.40823392,19.674807 8.88196491,19.5814269 9.33291228,19.3947135 C11.1943392,18.6236257 12.0814971,16.4819181 11.3105029,14.6203977 Z M8.9225731,18.404117 C8.28547368,18.6680234 7.58376608,18.6679766 6.94647953,18.404117 C6.30938012,18.1402105 5.8131462,17.6439298 5.54919298,17.0067836 C5.00430409,15.6915088 5.63120468,14.178152 6.94652632,13.6333567 C7.26863158,13.4999298 7.60247953,13.4367719 7.93118129,13.4367719 C8.94484211,13.4367719 9.90849123,14.0374737 10.3199532,15.0306901 C10.8647485,16.3459649 10.237848,17.8592749 8.9225731,18.404117 Z" id="Shape" fill-rule="nonzero"></path>
                        <path d="M23.2305497,4.72215205 C23.0454737,4.69445614 22.8553918,4.66755556 22.6639532,4.6420117 C22.5674854,4.32121637 22.4386433,4.01019883 22.2796725,3.71480702 C22.3968187,3.56159064 22.5122807,3.40809357 22.6238596,3.25730994 C22.8715789,2.9222924 22.8357427,2.44715789 22.5405848,2.15214035 L21.8010292,1.41267836 C21.5058713,1.11747368 21.0307368,1.08168421 20.6958129,1.32949708 C20.5445146,1.44145029 20.3910643,1.5568655 20.2383158,1.67359064 C19.9429708,1.51461988 19.632,1.38577778 19.3111111,1.28926316 C19.2855205,1.09782456 19.2587135,0.90774269 19.2310175,0.72271345 C19.1694035,0.310736842 18.8081404,0 18.3907368,0 L17.3448421,0 C16.9274386,0 16.5661754,0.310736842 16.5045614,0.722666667 C16.4769123,0.907602339 16.4500585,1.09773099 16.4244678,1.28921637 C16.1035789,1.38573099 15.7925614,1.5145731 15.4972632,1.67354386 C15.3446082,1.55677193 15.1910643,1.44130994 15.0398129,1.32945029 C14.7047953,1.08163743 14.2296608,1.1174269 13.9345965,1.4125848 L13.1951345,2.152 C12.8999298,2.44711111 12.8640468,2.9222924 13.1118596,3.25735673 C13.223345,3.40809357 13.338807,3.56163743 13.4559064,3.71480702 C13.2970292,4.01015205 13.1681404,4.32112281 13.0716257,4.6420117 C12.8802339,4.66760234 12.6901053,4.69445614 12.505076,4.72215205 C12.0930526,4.78381287 11.7823158,5.14502924 11.7823158,5.56247953 L11.7823158,6.60832749 C11.7823158,7.02573099 12.0929591,7.38699415 12.5049825,7.44865497 C12.6900585,7.47635088 12.8801404,7.50325146 13.0715789,7.52879532 C13.1680936,7.84963743 13.2969357,8.16060819 13.4558596,8.456 C13.3388538,8.60907602 13.2233918,8.76252632 13.1116725,8.91349708 C12.864,9.24842105 12.8997895,9.72364912 13.1949474,10.0186199 L13.9345029,10.7581754 C14.229614,11.0533801 14.7047485,11.0891228 15.0397193,10.8413567 C15.1910175,10.7294971 15.3444678,10.6139883 15.4971696,10.4973099 C15.7926082,10.6562807 16.1036257,10.7851228 16.4244211,10.8815906 C16.4499181,11.0729825 16.4768187,11.2631111 16.5045146,11.4481871 C16.5661754,11.8601637 16.9274386,12.1709006 17.3448421,12.1709006 L18.3907368,12.1709006 C18.8081404,12.1709006 19.1694035,11.8602573 19.2310175,11.4481404 C19.2586667,11.2630643 19.2855205,11.0729825 19.3111111,10.8815439 C19.6319532,10.7851228 19.942924,10.6561871 20.2383158,10.4972164 C20.3909708,10.6139883 20.5445146,10.7294503 20.6957661,10.8413567 C21.0306901,11.0891696 21.5059181,11.0533801 21.8009825,10.7582222 L22.540538,10.0187602 C22.8356959,9.72364912 22.8715322,9.24846784 22.6237193,8.91345029 C22.5120936,8.76252632 22.3966316,8.60898246 22.2796725,8.45604678 C22.4385497,8.16070175 22.5674386,7.84977778 22.6639532,7.52884211 C22.855345,7.50325146 23.0454737,7.47639766 23.2305029,7.44870175 C23.6425263,7.38704094 23.9532632,7.02582456 23.9532632,6.60837427 L23.9532632,5.56252632 C23.9532632,5.14507602 23.6425263,4.78381287 23.2305497,4.72215205 Z M22.9346433,6.46278363 C22.7665965,6.48715789 22.5951345,6.51083041 22.4231111,6.53323977 C22.0828538,6.57763743 21.8043041,6.8191345 21.7136374,7.14839766 C21.6267602,7.46367251 21.5006784,7.76790643 21.3389474,8.05263158 C21.1700117,8.34984795 21.1960702,8.71766082 21.4053333,8.98980117 C21.5108304,9.12697076 21.6154854,9.26502924 21.7173333,9.40145029 L21.1838129,9.93501754 C21.0469708,9.83288889 20.9089123,9.7282807 20.7720234,9.62301754 C20.5000234,9.41366082 20.132117,9.38778947 19.8348538,9.55653801 C19.5500819,9.71831579 19.245848,9.84439766 18.9307602,9.93127485 C18.6013099,10.0220351 18.3598129,10.3005848 18.3155556,10.6407485 C18.2931462,10.8127719 18.2695205,10.9842807 18.2450994,11.1523275 L17.4904795,11.1523275 C17.4661053,10.9842807 17.4424795,10.8128187 17.4200234,10.6409357 C17.3756257,10.3006316 17.1341754,10.0220819 16.8048187,9.93132164 C16.4896374,9.84449123 16.1854971,9.71840936 15.9006316,9.55663158 C15.6033684,9.38774269 15.235462,9.4137076 14.9635088,9.62301754 C14.8265731,9.72832749 14.6886082,9.83288889 14.5516725,9.93501754 L14.018152,9.40145029 C14.12,9.26488889 14.2246082,9.12692398 14.3302456,8.98961404 C14.5393684,8.71756725 14.5654269,8.34975439 14.396538,8.05253801 C14.234807,7.76781287 14.1087251,7.46353216 14.021848,7.14835088 C13.9311345,6.81899415 13.6526316,6.57754386 13.3123743,6.5331462 C13.1403509,6.51069006 12.9688421,6.48711111 12.8007953,6.46264327 L12.8007953,5.70811696 C12.9688421,5.68374269 13.1403041,5.66007018 13.3123275,5.63766082 C13.6525848,5.59326316 13.9311345,5.35176608 14.0218012,5.02250292 C14.1086784,4.70727485 14.2347135,4.40304094 14.3964912,4.11826901 C14.5654269,3.82105263 14.5393684,3.45319298 14.3301988,3.1811462 C14.2245146,3.04378947 14.1199064,2.90577778 14.018152,2.76945029 L14.5516725,2.23588304 C14.6885146,2.3380117 14.8265263,2.44261988 14.9633684,2.54783626 C15.2352749,2.75719298 15.6031345,2.78329825 15.9006316,2.61436257 C16.1853099,2.45263158 16.4895906,2.32654971 16.8047251,2.23962573 C17.1341754,2.1488655 17.3756725,1.87031579 17.4199298,1.53015205 C17.442386,1.35812865 17.4660585,1.18666667 17.4904327,1.01861988 L18.2450526,1.01861988 C18.2694269,1.18661988 18.2930526,1.35808187 18.315462,1.5300117 C18.3598596,1.87031579 18.6013567,2.1488655 18.9306667,2.23957895 C19.2458947,2.32645614 19.5501754,2.4525848 19.8349006,2.61431579 C20.1322105,2.78325146 20.5000702,2.75700585 20.7719766,2.54788304 C20.9089123,2.44261988 21.0468772,2.3380117 21.1838129,2.23588304 L21.7173333,2.76945029 C21.6155789,2.90582456 21.5109708,3.04388304 21.4052865,3.18128655 C21.196117,3.45328655 21.1701053,3.82109942 21.3389006,4.11831579 C21.5006316,4.4031345 21.6267135,4.7074152 21.7135906,5.02254971 C21.8043041,5.35190643 22.082807,5.59335673 22.4230643,5.63775439 C22.5950877,5.66021053 22.7665965,5.68383626 22.9346433,5.70825731 L22.9346433,6.46278363 Z" id="Shape" fill-rule="nonzero"></path>
                        <path d="M17.8677895,3.91461988 C16.6708304,3.91461988 15.6969825,4.88842105 15.6969825,6.0854269 C15.6969825,7.28247953 16.6707836,8.2562807 17.8677895,8.2562807 C19.0647953,8.2562807 20.0385965,7.28247953 20.0385965,6.0854269 C20.0385965,4.88842105 19.0647953,3.91461988 17.8677895,3.91461988 Z M17.8677895,7.29127485 C17.2029474,7.29127485 16.6619415,6.75031579 16.6619415,6.08538012 C16.6619415,5.42044444 17.2029006,4.87953216 17.8677895,4.87953216 C18.5326784,4.87953216 19.0735906,5.42049123 19.0736374,6.08538012 C19.0736374,6.75031579 18.5326784,7.29127485 17.8677895,7.29127485 Z" id="Shape" fill-rule="nonzero"></path>
                    </g>
                </g>
            </g>
        </g>
    </g>
</svg>